<?xml version="1.0" encoding="utf-8"?>
<!-- Generator: Adobe Illustrator 16.0.0, SVG Export Plug-In . SVG Version: 6.00 Build 0)  -->
<!DOCTYPE svg PUBLIC "-//W3C//DTD SVG 1.1//EN" "http://www.w3.org/Graphics/SVG/1.1/DTD/svg11.dtd">
<svg version="1.1" xmlns="http://www.w3.org/2000/svg" xmlns:xlink="http://www.w3.org/1999/xlink" x="0px" y="0px" width="1000px"
	 height="1000px" viewBox="0 0 1000 1000" enable-background="new 0 0 1000 1000" xml:space="preserve">
<g id="branches">
	<path fill-rule="evenodd" clip-rule="evenodd" d="M570.146,588.49c-1.764-0.46-2.721-0.91-2.271-1.274
		C568.096,587.035,568.9,587.504,570.146,588.49z"/>
	<path fill-rule="evenodd" clip-rule="evenodd" d="M821.576,214.491c-12.309,5.958-38.898,7.385-38.898,7.385
		s-15.691,2.309-31.821,22.797c-16.13,20.479-140.605,176.736-125.461,341.25c0,0-4.359,18.554,9.358,23.17
		c13.726,4.608-22.703-8.267-12.615,31.104c0,0-41.571-43.517-51.983-51.706c6.254,1.647,22.567,3.582,22.567,3.582
		s-34.646-144.935,114.656-337.802c0,0,14.253-34.195-31.725-9.598c-45.978,24.598-205.195,70.892-300.493,238.203
		c-2.921,14.885,9.876,21.112,9.876,21.112s-6.83,7.261-15.853,16.619c-4.463-15.681-13.065-27.625-23.41-36.715l4.521-9.923
		c0,0,114.6-219.429,420.676-310.666l36.573-12.041c0,0,15.037,13.372,17.862,26.255
		C828.224,190.391,833.885,208.523,821.576,214.491z"/>
</g>
<g id="cerise-arriere">
	
		<path fill-rule="evenodd" clip-rule="evenodd" fill="#FF7BAC" stroke="#000000" stroke-width="10" stroke-linejoin="round" stroke-miterlimit="10" d="
		M405.507,516.487c0,0-0.585-0.595-0.795-0.776c-27.117-22.912-31.658,9.244-32.29,25.776c-0.297-7.604-1.427-14.55-3.238-20.881
		c-4.463-15.681-13.065-27.625-23.41-36.715c-30.269-26.629-75.441-28.832-75.441-28.832
		c-98.411-4.358-191.344,63.986-212.053,163.67c-23.046,110.96,48.238,219.544,159.198,242.59
		c110.959,23.047,219.601-48.219,242.647-159.178C474.588,632.466,451.877,563.709,405.507,516.487z M372.413,550.243
		c0,0-0.182-3.602,0.009-8.708C372.537,544.342,372.537,547.244,372.413,550.243z"/>
	<path fill-rule="evenodd" clip-rule="evenodd" fill="#FEFEFD" d="M68.041,609.701c0,0,5.726-100.439,151.592-146.269
		c0,0,10.462-0.386,4.895,6.3c-5.567,6.687-127.553,37.754-146.427,135.846C78.101,605.579,64.179,628.484,68.041,609.701z"/>
</g>
<g id="visage">
	<path fill="none" stroke="#000000" stroke-width="6" stroke-miterlimit="10" d="M186.812,613.291c0,0-22.902-37.074-67.956-12.399"
		/>
	<path fill="none" stroke="#000000" stroke-width="6" stroke-miterlimit="10" d="M308.972,639.816c0,0-22.63-37.241-67.863-12.9"/>
	<ellipse transform="matrix(0.9548 0.2974 -0.2974 0.9548 216.7186 -46.9823)" cx="262.778" cy="688.806" rx="36.909" ry="37.502"/>
	<circle fill-rule="evenodd" clip-rule="evenodd" fill="#FFFFFF" cx="277.129" cy="665.929" r="7.02"/>
	<circle fill-rule="evenodd" clip-rule="evenodd" fill="#FFFFFF" cx="282.077" cy="688.808" r="14.415"/>
	<path fill="none" stroke="#000000" stroke-width="6" stroke-miterlimit="10" d="M137.37,735.765c0,0,12.26,73.845,57.387,25.543"/>
	<path fill="none" stroke="#000000" stroke-width="6" stroke-miterlimit="10" d="M142.952,730.842c0,0-6.698-0.613-7.391,14.715"/>
	<path fill="none" stroke="#000000" stroke-width="6" stroke-miterlimit="10" d="M193.699,772.696c0,0,5.033-11.839-0.87-22.719"/>
	<path fill="none" stroke="#000000" stroke-width="6" stroke-miterlimit="10" d="M158.791,683.414c0,0-8.457-45.984-52.039-25.699
		l-12.103-10.784c16.616,11.639,16.246,13.791-4.836,16.642"/>
</g>
<g id="cerise">
	
		<path fill-rule="evenodd" clip-rule="evenodd" fill="#FF7BAC" stroke="#000000" stroke-width="10" stroke-linejoin="round" stroke-miterlimit="10" d="
		M645.557,614.284c53.555,35.835,88.815,96.876,88.815,166.152c0,110.335-89.443,199.776-199.775,199.776
		c-110.334,0-199.777-89.396-199.777-199.73c0-99.119,75.057-182.663,169.724-197.988c0,0,101.904-16.044,116.148,70.516
		c0,0-15.864-60.897,23.952-39.305C644.882,613.834,645.557,614.284,645.557,614.284z"/>
	<path fill="none" stroke="#000000" stroke-width="6" stroke-miterlimit="10" d="M474.329,746.11c0,0-24.774-35.852-68.502-8.898"/>
	<path fill="none" stroke="#000000" stroke-width="6" stroke-miterlimit="10" d="M645.55,740.667c0,0-32.68-28.829-68.628,7.863"/>
	<ellipse cx="612.883" cy="809.653" rx="36.909" ry="37.502"/>
	<circle fill-rule="evenodd" clip-rule="evenodd" fill="#FFFFFF" cx="614.398" cy="818.177" r="14.415"/>
	<circle fill-rule="evenodd" clip-rule="evenodd" fill="#FFFFFF" cx="630.95" cy="794.92" r="7.02"/>
	<ellipse cx="433.762" cy="807.738" rx="36.909" ry="37.501"/>
	<circle fill-rule="evenodd" clip-rule="evenodd" fill="#FFFFFF" cx="435.277" cy="816.26" r="14.415"/>
	<circle fill-rule="evenodd" clip-rule="evenodd" fill="#FFFFFF" cx="451.829" cy="793.004" r="7.02"/>
	<path fill="none" stroke="#000000" stroke-width="6" stroke-miterlimit="10" d="M466.839,879.771c0,0,53.641,64.955,122.606-4.569"
		/>
	<path fill-rule="evenodd" clip-rule="evenodd" fill="#FEFEFD" d="M350.971,718.321c0,0,12.366-99.84,160.947-135.906
		c0,0,10.464,0.309,4.466,6.612c-5.997,6.303-129.773,29.221-155.104,125.847C361.28,714.874,345.873,736.808,350.971,718.321z"/>
	<path fill="none" stroke="#000000" stroke-width="6" stroke-miterlimit="10" d="M475.792,872.184c0,0-13.361,2.816-8.565,17.947"/>
	<path fill="none" stroke="#000000" stroke-width="6" stroke-miterlimit="10" d="M591.946,886.719c0,0,5.102-13.975-10.82-21.462"/>
	
		<path fill-rule="evenodd" clip-rule="evenodd" fill="none" stroke="#000000" stroke-width="10" stroke-linejoin="round" stroke-miterlimit="10" d="
		M645.557,614.284c53.555,35.835,88.815,96.876,88.815,166.152c0,110.335-89.443,199.776-199.775,199.776
		c-110.334,0-199.777-89.396-199.777-199.73c0-99.119,75.057-182.663,169.724-197.988c0,0,101.904-16.044,116.148,70.516
		c0,0-15.864-60.897,23.952-39.305C644.882,613.834,645.557,614.284,645.557,614.284z"/>
	<path fill-rule="evenodd" clip-rule="evenodd" fill="none" d="M350.971,718.321c0,0,12.366-99.84,160.947-135.906
		c0,0,10.464,0.309,4.466,6.612c-5.997,6.303-129.773,29.221-155.104,125.847C361.28,714.874,345.873,736.808,350.971,718.321z"/>
</g>
<g id="feuille">
	<path fill-rule="evenodd" clip-rule="evenodd" fill="#33CA70" stroke="#000000" stroke-width="7" stroke-miterlimit="10" d="
		M822.54,195.95c-3.21,28.3-19.22-3.63-19.22-3.63c-0.721-35.06-26.13-80.14-36.891-89.63c-16.02,119.34-148.52,129.6-148.52,129.6
		c-86.88,0.6-225.31-53.06-261.7-48.75c1.52-1.92,3-3.84,4.42-5.76c41.69-55.89,46.16-109.61,194.61-150.17
		c103.14-10.6,166.819,17.56,205.97,53.72C815.07,131.07,822.54,195.95,822.54,195.95z"/>
</g>
<g id="ombre-feuille">
	<path fill="#2C9953" d="M761.21,81.33c0,0-192.91-28.79-400.58,96.45c41.69-55.89,46.16-109.61,194.61-150.17
		C658.38,17.01,722.06,45.17,761.21,81.33z"/>
</g>
</svg>
